<svg xmlns="http://www.w3.org/2000/svg" xmlns:xlink="http://www.w3.org/1999/xlink" fill="none" version="1.1" width="3840" height="2400" viewBox="0 0 3840 2400"><defs><clipPath id="master_svg0_149_71"><rect x="0" y="0" width="3840" height="2400" rx="0"/></clipPath><filter id="master_svg1_149_031" filterUnits="objectBoundingBox" color-interpolation-filters="sRGB" x="-0.027721886876816454" y="-0.0229126213592233" width="1.0447127207690587" height="1.0388349514563107"><feFlood flood-opacity="0" result="BackgroundImageFix"/><feColorMatrix in="SourceAlpha" type="matrix" values="0 0 0 0 0 0 0 0 0 0 0 0 0 0 0 0 0 0 127 0"/><feOffset dy="3" dx="0"/><feGaussianBlur stdDeviation="3"/><feColorMatrix type="matrix" values="0 0 0 0 0 0 0 0 0 0 0 0 0 0 0 0 0 0 0.1599999964237213 0"/><feBlend mode="normal" in2="BackgroundImageFix" result="effect1_dropShadow"/><feColorMatrix in="SourceAlpha" type="matrix" values="0 0 0 0 0 0 0 0 0 0 0 0 0 0 0 0 0 0 127 0"/><feOffset dy="3" dx="0"/><feGaussianBlur stdDeviation="3"/><feColorMatrix type="matrix" values="0 0 0 0 0 0 0 0 0 0 0 0 0 0 0 0 0 0 0.23000000417232513 0"/><feBlend mode="normal" in2="effect1_dropShadow" result="effect2_dropShadow"/><feBlend mode="normal" in="SourceGraphic" in2="effect2_dropShadow" result="shape"/><feGaussianBlur stdDeviation="25" result="effect3_foregroundBlur"/></filter><linearGradient x1="1" y1="0.6367156505584717" x2="0.43595412438935605" y2="1.0738966220368593" id="master_svg2_60_9009"><stop offset="0%" stop-color="#0DFF09" stop-opacity="1"/><stop offset="100%" stop-color="#0C9D6A" stop-opacity="1"/></linearGradient><linearGradient x1="0" y1="0" x2="0.7301918394881012" y2="0.9850829411070574" id="master_svg3_60_9010"><stop offset="0%" stop-color="#006F9A" stop-opacity="0.550000011920929"/><stop offset="56.8493127822876%" stop-color="#00D4FF" stop-opacity="0.6700000166893005"/><stop offset="100%" stop-color="#24ABFF" stop-opacity="1"/></linearGradient><filter id="master_svg4_149_039" filterUnits="objectBoundingBox" color-interpolation-filters="sRGB" x="-0.028330155271043312" y="-0.02318977756743966" width="1.0435848542631436" height="1.0378608613345954"><feFlood flood-opacity="0" result="BackgroundImageFix"/><feColorMatrix in="SourceAlpha" type="matrix" values="0 0 0 0 0 0 0 0 0 0 0 0 0 0 0 0 0 0 127 0"/><feOffset dy="3" dx="0"/><feGaussianBlur stdDeviation="3"/><feColorMatrix type="matrix" values="0 0 0 0 0 0 0 0 0 0 0 0 0 0 0 0 0 0 0.1599999964237213 0"/><feBlend mode="normal" in2="BackgroundImageFix" result="effect1_dropShadow"/><feColorMatrix in="SourceAlpha" type="matrix" values="0 0 0 0 0 0 0 0 0 0 0 0 0 0 0 0 0 0 127 0"/><feOffset dy="3" dx="0"/><feGaussianBlur stdDeviation="3"/><feColorMatrix type="matrix" values="0 0 0 0 0 0 0 0 0 0 0 0 0 0 0 0 0 0 0.23000000417232513 0"/><feBlend mode="normal" in2="effect1_dropShadow" result="effect2_dropShadow"/><feBlend mode="normal" in="SourceGraphic" in2="effect2_dropShadow" result="shape"/><feGaussianBlur stdDeviation="20" result="effect3_foregroundBlur"/></filter><linearGradient x1="1" y1="0.6367156505584717" x2="0.43588208796700617" y2="1.0738251726217434" id="master_svg5_60_9009"><stop offset="0%" stop-color="#0DFF09" stop-opacity="1"/><stop offset="100%" stop-color="#0C9D6A" stop-opacity="1"/></linearGradient><linearGradient x1="0" y1="0" x2="0.7303432446614412" y2="0.9850003722274994" id="master_svg6_60_9010"><stop offset="0%" stop-color="#006F9A" stop-opacity="0.550000011920929"/><stop offset="56.8493127822876%" stop-color="#00D4FF" stop-opacity="0.6700000166893005"/><stop offset="100%" stop-color="#24ABFF" stop-opacity="1"/></linearGradient><filter id="master_svg7_149_033" filterUnits="objectBoundingBox" color-interpolation-filters="sRGB" x="-0.028282828282828285" y="-0.022813688212927757" width="1.0404040404040404" height="1.0350979818660426"><feFlood flood-opacity="0" result="BackgroundImageFix"/><feColorMatrix in="SourceAlpha" type="matrix" values="0 0 0 0 0 0 0 0 0 0 0 0 0 0 0 0 0 0 127 0"/><feOffset dy="3" dx="0"/><feGaussianBlur stdDeviation="3"/><feColorMatrix type="matrix" values="0 0 0 0 0 0 0 0 0 0 0 0 0 0 0 0 0 0 0.1599999964237213 0"/><feBlend mode="normal" in2="BackgroundImageFix" result="effect1_dropShadow"/><feColorMatrix in="SourceAlpha" type="matrix" values="0 0 0 0 0 0 0 0 0 0 0 0 0 0 0 0 0 0 127 0"/><feOffset dy="3" dx="0"/><feGaussianBlur stdDeviation="3"/><feColorMatrix type="matrix" values="0 0 0 0 0 0 0 0 0 0 0 0 0 0 0 0 0 0 0.23000000417232513 0"/><feBlend mode="normal" in2="effect1_dropShadow" result="effect2_dropShadow"/><feBlend mode="normal" in="SourceGraphic" in2="effect2_dropShadow" result="shape"/><feGaussianBlur stdDeviation="15" result="effect3_foregroundBlur"/></filter><linearGradient x1="1" y1="0.6367156505584717" x2="0.43587928925726604" y2="1.073822395904813" id="master_svg8_60_9009"><stop offset="0%" stop-color="#0DFF09" stop-opacity="1"/><stop offset="100%" stop-color="#0C9D6A" stop-opacity="1"/></linearGradient><linearGradient x1="0" y1="0" x2="0.7303491278224271" y2="0.984997162738411" id="master_svg9_60_9010"><stop offset="0%" stop-color="#006F9A" stop-opacity="0.550000011920929"/><stop offset="56.8493127822876%" stop-color="#00D4FF" stop-opacity="0.6700000166893005"/><stop offset="100%" stop-color="#24ABFF" stop-opacity="1"/></linearGradient><filter id="master_svga_149_032" filterUnits="objectBoundingBox" color-interpolation-filters="sRGB" x="-0.028193832599118944" y="-0.022196708763872943" width="1.0352422907488987" height="1.030616150019135"><feFlood flood-opacity="0" result="BackgroundImageFix"/><feColorMatrix in="SourceAlpha" type="matrix" values="0 0 0 0 0 0 0 0 0 0 0 0 0 0 0 0 0 0 127 0"/><feOffset dy="3" dx="0"/><feGaussianBlur stdDeviation="3"/><feColorMatrix type="matrix" values="0 0 0 0 0 0 0 0 0 0 0 0 0 0 0 0 0 0 0.1599999964237213 0"/><feBlend mode="normal" in2="BackgroundImageFix" result="effect1_dropShadow"/><feColorMatrix in="SourceAlpha" type="matrix" values="0 0 0 0 0 0 0 0 0 0 0 0 0 0 0 0 0 0 127 0"/><feOffset dy="3" dx="0"/><feGaussianBlur stdDeviation="3"/><feColorMatrix type="matrix" values="0 0 0 0 0 0 0 0 0 0 0 0 0 0 0 0 0 0 0.23000000417232513 0"/><feBlend mode="normal" in2="effect1_dropShadow" result="effect2_dropShadow"/><feBlend mode="normal" in="SourceGraphic" in2="effect2_dropShadow" result="shape"/><feGaussianBlur stdDeviation="10" result="effect3_foregroundBlur"/></filter><linearGradient x1="1" y1="0.6367156505584717" x2="0.4358461426593073" y2="1.0737895051513144" id="master_svgb_60_9009"><stop offset="0%" stop-color="#0DFF09" stop-opacity="1"/><stop offset="100%" stop-color="#0C9D6A" stop-opacity="1"/></linearGradient><linearGradient x1="0" y1="0" x2="0.730418810162066" y2="0.9849591420729279" id="master_svgc_60_9010"><stop offset="0%" stop-color="#006F9A" stop-opacity="0.550000011920929"/><stop offset="56.8493127822876%" stop-color="#00D4FF" stop-opacity="0.6700000166893005"/><stop offset="100%" stop-color="#24ABFF" stop-opacity="1"/></linearGradient><filter id="master_svgd_149_030" filterUnits="objectBoundingBox" color-interpolation-filters="sRGB" x="-0.028138526786745863" y="-0.021111111111111112" width="1.0255804788970417" height="1.0222222222222221"><feFlood flood-opacity="0" result="BackgroundImageFix"/><feColorMatrix in="SourceAlpha" type="matrix" values="0 0 0 0 0 0 0 0 0 0 0 0 0 0 0 0 0 0 127 0"/><feOffset dy="3" dx="0"/><feGaussianBlur stdDeviation="3"/><feColorMatrix type="matrix" values="0 0 0 0 0 0 0 0 0 0 0 0 0 0 0 0 0 0 0.1599999964237213 0"/><feBlend mode="normal" in2="BackgroundImageFix" result="effect1_dropShadow"/><feColorMatrix in="SourceAlpha" type="matrix" values="0 0 0 0 0 0 0 0 0 0 0 0 0 0 0 0 0 0 127 0"/><feOffset dy="3" dx="0"/><feGaussianBlur stdDeviation="3"/><feColorMatrix type="matrix" values="0 0 0 0 0 0 0 0 0 0 0 0 0 0 0 0 0 0 0.23000000417232513 0"/><feBlend mode="normal" in2="effect1_dropShadow" result="effect2_dropShadow"/><feBlend mode="normal" in="SourceGraphic" in2="effect2_dropShadow" result="shape"/><feGaussianBlur stdDeviation="5" result="effect3_foregroundBlur"/></filter><linearGradient x1="1" y1="0.6367156505584717" x2="0.43585483571336714" y2="1.0737981319331915" id="master_svge_60_9009"><stop offset="0%" stop-color="#0DFF09" stop-opacity="1"/><stop offset="100%" stop-color="#0C9D6A" stop-opacity="1"/></linearGradient><linearGradient x1="0" y1="0" x2="0.7304005343299941" y2="0.9849691150082595" id="master_svgf_60_9010"><stop offset="0%" stop-color="#006F9A" stop-opacity="0.550000011920929"/><stop offset="56.8493127822876%" stop-color="#00D4FF" stop-opacity="0.6700000166893005"/><stop offset="100%" stop-color="#24ABFF" stop-opacity="1"/></linearGradient><clipPath id="master_svgg_149_76"><rect x="1408" y="688" width="1024" height="1024" rx="0"/></clipPath><filter id="master_svgh_149_84" filterUnits="objectBoundingBox" color-interpolation-filters="sRGB" x="-0.028818444226450107" y="-0.018774858247311926" width="1.02881844422645" height="1.0250331443297493"><feFlood flood-opacity="0" result="BackgroundImageFix"/><feColorMatrix in="SourceAlpha" type="matrix" values="0 0 0 0 0 0 0 0 0 0 0 0 0 0 0 0 0 0 127 0"/><feOffset dy="3" dx="0"/><feGaussianBlur stdDeviation="3"/><feColorMatrix type="matrix" values="0 0 0 0 0 0 0 0 0 0 0 0 0 0 0 0 0 0 0.1599999964237213 0"/><feBlend mode="normal" in2="BackgroundImageFix" result="effect1_dropShadow"/><feColorMatrix in="SourceAlpha" type="matrix" values="0 0 0 0 0 0 0 0 0 0 0 0 0 0 0 0 0 0 127 0"/><feOffset dy="3" dx="0"/><feGaussianBlur stdDeviation="3"/><feColorMatrix type="matrix" values="0 0 0 0 0 0 0 0 0 0 0 0 0 0 0 0 0 0 0.23000000417232513 0"/><feBlend mode="normal" in2="effect1_dropShadow" result="effect2_dropShadow"/><feBlend mode="normal" in="SourceGraphic" in2="effect2_dropShadow" result="shape"/></filter><linearGradient x1="1" y1="0.6367156505584717" x2="0.43589350319992987" y2="1.0738364975213968" id="master_svgi_60_9009"><stop offset="0%" stop-color="#0DFF09" stop-opacity="1"/><stop offset="100%" stop-color="#0C9D6A" stop-opacity="1"/></linearGradient><linearGradient x1="0" y1="0" x2="0.7303192494027043" y2="0.9850134617019769" id="master_svgj_60_9010"><stop offset="0%" stop-color="#006F9A" stop-opacity="0.550000011920929"/><stop offset="56.8493127822876%" stop-color="#00D4FF" stop-opacity="0.6700000166893005"/><stop offset="100%" stop-color="#24ABFF" stop-opacity="1"/></linearGradient><clipPath id="master_svgk_149_85"><rect x="1566" y="844" width="704" height="704.0000610351562" rx="0"/></clipPath><filter id="master_svgl_149_86" filterUnits="objectBoundingBox" color-interpolation-filters="sRGB" x="-0.03787878787878788" y="-0.02797202498727812" width="1.0757575757575757" height="1.0699300624681953"><feFlood flood-opacity="0" result="BackgroundImageFix"/><feColorMatrix in="SourceAlpha" type="matrix" values="0 0 0 0 0 0 0 0 0 0 0 0 0 0 0 0 0 0 127 0"/><feOffset dy="4" dx="0"/><feGaussianBlur stdDeviation="5"/><feColorMatrix type="matrix" values="0 0 0 0 0 0 0 0 0 0 0 0 0 0 0 0 0 0 0.30000001192092896 0"/><feBlend mode="normal" in2="BackgroundImageFix" result="effect1_dropShadow"/><feBlend mode="normal" in="SourceGraphic" in2="effect1_dropShadow" result="shape"/></filter><linearGradient x1="1920.5" y1="1472" x2="1920.5" y2="1746" gradientUnits="userSpaceOnUse" id="master_svgm_63_0325"><stop offset="0%" stop-color="#FFFFFF" stop-opacity="1"/><stop offset="100%" stop-color="#FFFFFF" stop-opacity="0.5"/></linearGradient></defs><g clip-path="url(#master_svg0_149_71)"><g style="opacity:0.5;" filter="url(#master_svg1_149_031)"><path d="M1872.5685389648438,-1354.704823C1893.8483389648436,-1366.9923635,1901.1991389648438,-1371.2364569,1909.012838964844,-1372.8976214C1915.9271389648438,-1374.36746028,1923.0727389648437,-1374.36745968,1929.987438964844,-1372.8976203C1937.8009389648437,-1371.236454,1945.1510389648438,-1366.9923606,1966.4311389648437,-1354.704819L4109.067838964844,-117.50099999999998C4130.348538964844,-105.21350000000007,4137.698638964844,-100.96939999999995,4143.0443389648435,-95.03199999999993C4147.773838964844,-89.7781,4151.347138964844,-83.58909999999992,4153.531138964844,-76.86570000000006C4156.000438964844,-69.26710000000003,4156.000438964844,-60.77870000000007,4156.000438964844,-36.203500000000076L4156.000438964844,2438.2039C4156.000438964844,2462.7791,4156.000438964844,2471.2671,4153.531138964844,2478.866C4151.347138964844,2485.5884,4147.773838964844,2491.7786,4143.0443389648435,2497.0317C4137.698638964844,2502.969,4130.348538964844,2507.2126,4109.067838964844,2519.5007L1966.4311389648437,3756.7041C1945.1510389648438,3768.9927,1937.8009389648437,3773.2367999999997,1929.987438964844,3774.8975C1923.0727389648437,3776.3666999999996,1915.9269389648439,3776.3666999999996,1909.012838964844,3774.8975C1901.1991389648438,3773.2367999999997,1893.8483389648436,3768.9927,1872.5685389648438,3756.7041L-270.06877903515624,2519.5007C-291.3487990351563,2507.2126,-298.6988730351562,2502.969,-304.0444240351562,2497.0317C-308.7742128351563,2491.7791,-312.34707883515625,2485.5889,-314.5313215351562,2478.866C-316.99998407103726,2471.2671,-316.99998407103726,2462.7791,-316.99998407103726,2438.2039L-317.00006103515625,-36.203500000000076C-317.00006103515625,-60.77870000000007,-317.00006103515625,-69.26710000000003,-314.53139803515626,-76.86570000000006C-312.34711793515623,-83.58919999999989,-308.77425093515626,-89.77829999999994,-304.04449603515627,-95.03199999999993C-298.69895003515626,-100.96939999999995,-291.34888103515624,-105.21350000000007,-270.06884803515624,-117.50099999999998L1872.5685389648438,-1354.704823Z" fill="url(#master_svg2_60_9009)" fill-opacity="1"/><path d="M1872.5685389648438,-1354.704823C1893.8483389648436,-1366.9923635,1901.1991389648438,-1371.2364569,1909.012838964844,-1372.8976214C1915.9271389648438,-1374.36746028,1923.0727389648437,-1374.36745968,1929.987438964844,-1372.8976203C1937.8009389648437,-1371.236454,1945.1510389648438,-1366.9923606,1966.4311389648437,-1354.704819L4109.067838964844,-117.50099999999998C4130.348538964844,-105.21350000000007,4137.698638964844,-100.96939999999995,4143.0443389648435,-95.03199999999993C4147.773838964844,-89.7781,4151.347138964844,-83.58909999999992,4153.531138964844,-76.86570000000006C4156.000438964844,-69.26710000000003,4156.000438964844,-60.77870000000007,4156.000438964844,-36.203500000000076L4156.000438964844,2438.2039C4156.000438964844,2462.7791,4156.000438964844,2471.2671,4153.531138964844,2478.866C4151.347138964844,2485.5884,4147.773838964844,2491.7786,4143.0443389648435,2497.0317C4137.698638964844,2502.969,4130.348538964844,2507.2126,4109.067838964844,2519.5007L1966.4311389648437,3756.7041C1945.1510389648438,3768.9927,1937.8009389648437,3773.2367999999997,1929.987438964844,3774.8975C1923.0727389648437,3776.3666999999996,1915.9269389648439,3776.3666999999996,1909.012838964844,3774.8975C1901.1991389648438,3773.2367999999997,1893.8483389648436,3768.9927,1872.5685389648438,3756.7041L-270.06877903515624,2519.5007C-291.3487990351563,2507.2126,-298.6988730351562,2502.969,-304.0444240351562,2497.0317C-308.7742128351563,2491.7791,-312.34707883515625,2485.5889,-314.5313215351562,2478.866C-316.99998407103726,2471.2671,-316.99998407103726,2462.7791,-316.99998407103726,2438.2039L-317.00006103515625,-36.203500000000076C-317.00006103515625,-60.77870000000007,-317.00006103515625,-69.26710000000003,-314.53139803515626,-76.86570000000006C-312.34711793515623,-83.58919999999989,-308.77425093515626,-89.77829999999994,-304.04449603515627,-95.03199999999993C-298.69895003515626,-100.96939999999995,-291.34888103515624,-105.21350000000007,-270.06884803515624,-117.50099999999998L1872.5685389648438,-1354.704823Z" fill="url(#master_svg3_60_9010)" fill-opacity="1"/><path d="M1872.5685389648438,-1354.704823C1893.8483389648436,-1366.9923635,1901.1991389648438,-1371.2364569,1909.012838964844,-1372.8976214C1915.9271389648438,-1374.36746028,1923.0727389648437,-1374.36745968,1929.987438964844,-1372.8976203C1937.8009389648437,-1371.236454,1945.1510389648438,-1366.9923606,1966.4311389648437,-1354.704819L4109.067838964844,-117.50099999999998C4130.348538964844,-105.21350000000007,4137.698638964844,-100.96939999999995,4143.0443389648435,-95.03199999999993C4147.773838964844,-89.7781,4151.347138964844,-83.58909999999992,4153.531138964844,-76.86570000000006C4156.000438964844,-69.26710000000003,4156.000438964844,-60.77870000000007,4156.000438964844,-36.203500000000076L4156.000438964844,2438.2039C4156.000438964844,2462.7791,4156.000438964844,2471.2671,4153.531138964844,2478.866C4151.347138964844,2485.5884,4147.773838964844,2491.7786,4143.0443389648435,2497.0317C4137.698638964844,2502.969,4130.348538964844,2507.2126,4109.067838964844,2519.5007L1966.4311389648437,3756.7041C1945.1510389648438,3768.9927,1937.8009389648437,3773.2367999999997,1929.987438964844,3774.8975C1923.0727389648437,3776.3666999999996,1915.9269389648439,3776.3666999999996,1909.012838964844,3774.8975C1901.1991389648438,3773.2367999999997,1893.8483389648436,3768.9927,1872.5685389648438,3756.7041L-270.06877903515624,2519.5007C-291.3487990351563,2507.2126,-298.6988730351562,2502.969,-304.0444240351562,2497.0317C-308.7742128351563,2491.7791,-312.34707883515625,2485.5889,-314.5313215351562,2478.866C-316.99998407103726,2471.2671,-316.99998407103726,2462.7791,-316.99998407103726,2438.2039L-317.00006103515625,-36.203500000000076C-317.00006103515625,-60.77870000000007,-317.00006103515625,-69.26710000000003,-314.53139803515626,-76.86570000000006C-312.34711793515623,-83.58919999999989,-308.77425093515626,-89.77829999999994,-304.04449603515627,-95.03199999999993C-298.69895003515626,-100.96939999999995,-291.34888103515624,-105.21350000000007,-270.06884803515624,-117.50099999999998L1872.5685389648438,-1354.704823ZM-125.00006103515625,20.44250000000011L1919.4999389648438,-1160.09465L3964.000438964844,20.443199999999933L3964.000438964844,2381.5564L1919.4994389648436,3562.0937999999996L-124.99998103515625,2381.5574L-125.00006103515625,20.44250000000011Z" fill-rule="evenodd" fill="#FFFFFF" fill-opacity="0.3499999940395355"/></g><g style="opacity:0.6000000238418579;" filter="url(#master_svg4_149_039)"><path d="M1881.9832,-897.166714C1899.4475,-907.2496557,1905.4803,-910.7322848,1911.8931,-912.09540731C1917.5677,-913.30153149,1923.4323,-913.30153102,1929.1072,-912.09540647C1935.5194,-910.7322824,1941.5518,-907.2496533,1959.0164,-897.166709L3717.4829,118.0612000000001C3734.9475,128.144,3740.98,131.62670000000003,3745.3672,136.49890000000005C3749.2485,140.81009999999992,3752.1809,145.88869999999997,3753.9734,151.4058C3756,157.64110000000005,3756,164.6063999999999,3756,184.77250000000004L3756,2215.228C3756,2235.3938,3756,2242.3591,3753.9734,2248.5947C3752.1809,2254.1111,3749.2485,2259.1904,3745.3672,2263.5012C3740.98,2268.3733,3734.9475,2271.8555,3717.4829,2281.939L1959.0164,3297.1665000000003C1941.5518,3307.25,1935.5194,3310.7329,1929.1072,3312.0957C1923.4323,3313.3013,1917.5675,3313.3013,1911.8931,3312.0957C1905.4803,3310.7329,1899.4475,3307.25,1881.9832,3297.1665000000003L123.516594,2281.939C106.052042,2271.8555,100.01982,2268.3733,95.632717,2263.5012C91.7509699,2259.1909,88.8187118,2254.1113,87.0260994,2248.5947C85.000063164603,2242.3591,85.000063164603,2235.3938,85.000063164603,2215.228L85,184.77250000000004C85,164.6063999999999,85,157.64110000000005,87.0260363,151.4058C88.8186796,145.88850000000002,91.7509384,140.80989999999997,95.63265799999999,136.49890000000005C100.019757,131.62670000000003,106.051973,128.144,123.51654099999999,118.0612000000001L1881.9832,-897.166714Z" fill="url(#master_svg5_60_9009)" fill-opacity="1"/><path d="M1881.9832,-897.166714C1899.4475,-907.2496557,1905.4803,-910.7322848,1911.8931,-912.09540731C1917.5677,-913.30153149,1923.4323,-913.30153102,1929.1072,-912.09540647C1935.5194,-910.7322824,1941.5518,-907.2496533,1959.0164,-897.166709L3717.4829,118.0612000000001C3734.9475,128.144,3740.98,131.62670000000003,3745.3672,136.49890000000005C3749.2485,140.81009999999992,3752.1809,145.88869999999997,3753.9734,151.4058C3756,157.64110000000005,3756,164.6063999999999,3756,184.77250000000004L3756,2215.228C3756,2235.3938,3756,2242.3591,3753.9734,2248.5947C3752.1809,2254.1111,3749.2485,2259.1904,3745.3672,2263.5012C3740.98,2268.3733,3734.9475,2271.8555,3717.4829,2281.939L1959.0164,3297.1665000000003C1941.5518,3307.25,1935.5194,3310.7329,1929.1072,3312.0957C1923.4323,3313.3013,1917.5675,3313.3013,1911.8931,3312.0957C1905.4803,3310.7329,1899.4475,3307.25,1881.9832,3297.1665000000003L123.516594,2281.939C106.052042,2271.8555,100.01982,2268.3733,95.632717,2263.5012C91.7509699,2259.1909,88.8187118,2254.1113,87.0260994,2248.5947C85.000063164603,2242.3591,85.000063164603,2235.3938,85.000063164603,2215.228L85,184.77250000000004C85,164.6063999999999,85,157.64110000000005,87.0260363,151.4058C88.8186796,145.88850000000002,91.7509384,140.80989999999997,95.63265799999999,136.49890000000005C100.019757,131.62670000000003,106.051973,128.144,123.51654099999999,118.0612000000001L1881.9832,-897.166714Z" fill="url(#master_svg6_60_9010)" fill-opacity="1"/><path d="M1881.9832,-897.166714C1899.4475,-907.2496557,1905.4803,-910.7322848,1911.8931,-912.09540731C1917.5677,-913.30153149,1923.4323,-913.30153102,1929.1072,-912.09540647C1935.5194,-910.7322824,1941.5518,-907.2496533,1959.0164,-897.166709L3717.4829,118.0612000000001C3734.9475,128.144,3740.98,131.62670000000003,3745.3672,136.49890000000005C3749.2485,140.81009999999992,3752.1809,145.88869999999997,3753.9734,151.4058C3756,157.64110000000005,3756,164.6063999999999,3756,184.77250000000004L3756,2215.228C3756,2235.3938,3756,2242.3591,3753.9734,2248.5947C3752.1809,2254.1111,3749.2485,2259.1904,3745.3672,2263.5012C3740.98,2268.3733,3734.9475,2271.8555,3717.4829,2281.939L1959.0164,3297.1665000000003C1941.5518,3307.25,1935.5194,3310.7329,1929.1072,3312.0957C1923.4323,3313.3013,1917.5675,3313.3013,1911.8931,3312.0957C1905.4803,3310.7329,1899.4475,3307.25,1881.9832,3297.1665000000003L123.516594,2281.939C106.052042,2271.8555,100.01982,2268.3733,95.632717,2263.5012C91.7509699,2259.1909,88.8187118,2254.1113,87.0260994,2248.5947C85.000063164603,2242.3591,85.000063164603,2235.3938,85.000063164603,2215.228L85,184.77250000000004C85,164.6063999999999,85,157.64110000000005,87.0260363,151.4058C88.8186796,145.88850000000002,91.7509384,140.80989999999997,95.63265799999999,136.49890000000005C100.019757,131.62670000000003,106.051973,128.144,123.51654099999999,118.0612000000001L1881.9832,-897.166714ZM277,251.1507999999999L1920.4996,-697.70255L3564,251.15100000000007L3564,2148.8491L1920.4999,3097.7024L277.00005999999996,2148.8494L277,251.1507999999999Z" fill-rule="evenodd" fill="#FFFFFF" fill-opacity="0.3499999940395355"/></g><g style="opacity:0.699999988079071;" filter="url(#master_svg7_149_033)"><path d="M1888.8384,-496.19025C1902.9679,-504.3477459,1907.8486,-507.1653296,1913.0369,-508.26814908C1917.6278,-509.2439508,1922.3724,-509.24395041,1926.9636,-508.26814842C1932.1515,-507.1653278,1937.032,-504.347744,1951.1615,-496.190247L3373.8384,325.16887999999994C3387.968,333.32635000000005,3392.8484,336.14404,3396.3979,340.08582C3399.5378,343.57367,3401.9104,347.68242999999995,3403.3606,352.14599999999996C3405.0002,357.19066999999995,3405.0002,362.82592999999997,3405.0002,379.14086999999995L3405.0002,2021.8591000000001C3405.0002,2038.1741000000002,3405.0002,2043.8093,3403.3606,2048.854C3401.9104,2053.3171,3399.5378,2057.4265,3396.3979,2060.9141C3392.8484,2064.8557,3387.968,2067.6729,3373.8384,2075.8308L1951.1615,2897.1899C1937.032,2905.3477,1932.1515,2908.1655,1926.9636,2909.2681C1922.3724,2910.2437,1917.6277,2910.2437,1913.0369,2909.2681C1907.8486,2908.1655,1902.9679,2905.3477,1888.8384,2897.1899L466.161621,2075.8308C452.032026,2067.6729,447.151694,2064.8557,443.6023359,2060.9141C440.4618316,2057.4268,438.0895057,2053.3174,436.6392034,2048.854C435.000051102939,2043.8093,435.000051102939,2038.1741000000002,435.000051102939,2021.8591000000001L435,379.14086999999995C435,362.82592999999997,435,357.19066999999995,436.6391524,352.14599999999996C438.0894794,347.68231000000003,440.4618063,343.57354999999995,443.6022863,340.08582C447.151643,336.14404,452.031973,333.32635000000005,466.16157499999997,325.16887999999994L1888.8384,-496.19025Z" fill="url(#master_svg8_60_9009)" fill-opacity="1"/><path d="M1888.8384,-496.19025C1902.9679,-504.3477459,1907.8486,-507.1653296,1913.0369,-508.26814908C1917.6278,-509.2439508,1922.3724,-509.24395041,1926.9636,-508.26814842C1932.1515,-507.1653278,1937.032,-504.347744,1951.1615,-496.190247L3373.8384,325.16887999999994C3387.968,333.32635000000005,3392.8484,336.14404,3396.3979,340.08582C3399.5378,343.57367,3401.9104,347.68242999999995,3403.3606,352.14599999999996C3405.0002,357.19066999999995,3405.0002,362.82592999999997,3405.0002,379.14086999999995L3405.0002,2021.8591000000001C3405.0002,2038.1741000000002,3405.0002,2043.8093,3403.3606,2048.854C3401.9104,2053.3171,3399.5378,2057.4265,3396.3979,2060.9141C3392.8484,2064.8557,3387.968,2067.6729,3373.8384,2075.8308L1951.1615,2897.1899C1937.032,2905.3477,1932.1515,2908.1655,1926.9636,2909.2681C1922.3724,2910.2437,1917.6277,2910.2437,1913.0369,2909.2681C1907.8486,2908.1655,1902.9679,2905.3477,1888.8384,2897.1899L466.161621,2075.8308C452.032026,2067.6729,447.151694,2064.8557,443.6023359,2060.9141C440.4618316,2057.4268,438.0895057,2053.3174,436.6392034,2048.854C435.000051102939,2043.8093,435.000051102939,2038.1741000000002,435.000051102939,2021.8591000000001L435,379.14086999999995C435,362.82592999999997,435,357.19066999999995,436.6391524,352.14599999999996C438.0894794,347.68231000000003,440.4618063,343.57354999999995,443.6022863,340.08582C447.151643,336.14404,452.031973,333.32635000000005,466.16157499999997,325.16887999999994L1888.8384,-496.19025Z" fill="url(#master_svg9_60_9010)" fill-opacity="1"/><path d="M1888.8384,-496.19025C1902.9679,-504.3477459,1907.8486,-507.1653296,1913.0369,-508.26814908C1917.6278,-509.2439508,1922.3724,-509.24395041,1926.9636,-508.26814842C1932.1515,-507.1653278,1937.032,-504.347744,1951.1615,-496.190247L3373.8384,325.16887999999994C3387.968,333.32635000000005,3392.8484,336.14404,3396.3979,340.08582C3399.5378,343.57367,3401.9104,347.68242999999995,3403.3606,352.14599999999996C3405.0002,357.19066999999995,3405.0002,362.82592999999997,3405.0002,379.14086999999995L3405.0002,2021.8591000000001C3405.0002,2038.1741000000002,3405.0002,2043.8093,3403.3606,2048.854C3401.9104,2053.3171,3399.5378,2057.4265,3396.3979,2060.9141C3392.8484,2064.8557,3387.968,2067.6729,3373.8384,2075.8308L1951.1615,2897.1899C1937.032,2905.3477,1932.1515,2908.1655,1926.9636,2909.2681C1922.3724,2910.2437,1917.6277,2910.2437,1913.0369,2909.2681C1907.8486,2908.1655,1902.9679,2905.3477,1888.8384,2897.1899L466.161621,2075.8308C452.032026,2067.6729,447.151694,2064.8557,443.6023359,2060.9141C440.4618316,2057.4268,438.0895057,2053.3174,436.6392034,2048.854C435.000051102939,2043.8093,435.000051102939,2038.1741000000002,435.000051102939,2021.8591000000001L435,379.14086999999995C435,362.82592999999997,435,357.19066999999995,436.6391524,352.14599999999996C438.0894794,347.68231000000003,440.4618063,343.57354999999995,443.6022863,340.08582C447.151643,336.14404,452.031973,333.32635000000005,466.16157499999997,325.16887999999994L1888.8384,-496.19025ZM627,454.01239L1919.9999,-292.47995000000003L3213.0002,454.01244999999994L3213.0002,1946.9870999999998L1919.9999,2693.4797L627.00005,1946.9872999999998L627,454.01239Z" fill-rule="evenodd" fill="#FFFFFF" fill-opacity="0.3499999940395355"/></g><g style="opacity:0.800000011920929;" filter="url(#master_svga_149_032)"><path d="M1896.183,-96.2100401C1906.9822,-102.4444757,1910.7125,-104.5978374,1914.678,-105.44067669C1918.187,-106.18644147,1921.8132,-106.18644117,1925.3224,-105.44067615C1929.2876,-104.5978363,1933.0177,-102.444474,1943.817,-96.2100363L3031.1831,531.52069C3041.9822,537.75507,3045.7122,539.90851,3048.4253,542.92108C3050.8252,545.58667,3052.6387,548.72681,3053.7471,552.13812C3055,555.99359,3055,560.30042,3055,572.76923L3055,1828.2306C3055,1840.6993,3055,1845.0062,3053.7471,1848.8616C3052.6387,1852.2727,3050.8252,1855.4132,3048.4253,1858.0785C3045.7122,1861.0913,3041.9822,1863.2443,3031.1831,1869.4789L1943.817,2497.2095C1933.0177,2503.4443,1929.2876,2505.5979,1925.3224,2506.4404C1921.8132,2507.186,1918.1869,2507.186,1914.678,2506.4404C1910.7125,2505.5979,1906.9822,2503.4443,1896.183,2497.2095L808.817133,1869.4789C798.017744,1863.2443,794.2876587,1861.0913,791.5748496,1858.0785C789.1745315,1855.4133,787.3613393,1852.2729,786.2528592,1848.8616C785.000039058472,1845.0062,785.000039058472,1840.6993,785.000039058472,1828.2306L785,572.76923C785,560.30042,785,555.99359,786.2528203,552.13812C787.3613193,548.72668,789.1745119,545.58655,791.5748119,542.92108C794.2876196,539.90851,798.017704,537.75507,808.817095,531.52069L1896.183,-96.2100401Z" fill="url(#master_svgb_60_9009)" fill-opacity="1"/><path d="M1896.183,-96.2100401C1906.9822,-102.4444757,1910.7125,-104.5978374,1914.678,-105.44067669C1918.187,-106.18644147,1921.8132,-106.18644117,1925.3224,-105.44067615C1929.2876,-104.5978363,1933.0177,-102.444474,1943.817,-96.2100363L3031.1831,531.52069C3041.9822,537.75507,3045.7122,539.90851,3048.4253,542.92108C3050.8252,545.58667,3052.6387,548.72681,3053.7471,552.13812C3055,555.99359,3055,560.30042,3055,572.76923L3055,1828.2306C3055,1840.6993,3055,1845.0062,3053.7471,1848.8616C3052.6387,1852.2727,3050.8252,1855.4132,3048.4253,1858.0785C3045.7122,1861.0913,3041.9822,1863.2443,3031.1831,1869.4789L1943.817,2497.2095C1933.0177,2503.4443,1929.2876,2505.5979,1925.3224,2506.4404C1921.8132,2507.186,1918.1869,2507.186,1914.678,2506.4404C1910.7125,2505.5979,1906.9822,2503.4443,1896.183,2497.2095L808.817133,1869.4789C798.017744,1863.2443,794.2876587,1861.0913,791.5748496,1858.0785C789.1745315,1855.4133,787.3613393,1852.2729,786.2528592,1848.8616C785.000039058472,1845.0062,785.000039058472,1840.6993,785.000039058472,1828.2306L785,572.76923C785,560.30042,785,555.99359,786.2528203,552.13812C787.3613193,548.72668,789.1745119,545.58655,791.5748119,542.92108C794.2876196,539.90851,798.017704,537.75507,808.817095,531.52069L1896.183,-96.2100401Z" fill="url(#master_svgc_60_9010)" fill-opacity="1"/><path d="M1896.183,-96.2100401C1906.9822,-102.4444757,1910.7125,-104.5978374,1914.678,-105.44067669C1918.187,-106.18644147,1921.8132,-106.18644117,1925.3224,-105.44067615C1929.2876,-104.5978363,1933.0177,-102.444474,1943.817,-96.2100363L3031.1831,531.52069C3041.9822,537.75507,3045.7122,539.90851,3048.4253,542.92108C3050.8252,545.58667,3052.6387,548.72681,3053.7471,552.13812C3055,555.99359,3055,560.30042,3055,572.76923L3055,1828.2306C3055,1840.6993,3055,1845.0062,3053.7471,1848.8616C3052.6387,1852.2727,3050.8252,1855.4132,3048.4253,1858.0785C3045.7122,1861.0913,3041.9822,1863.2443,3031.1831,1869.4789L1943.817,2497.2095C1933.0177,2503.4443,1929.2876,2505.5979,1925.3224,2506.4404C1921.8132,2507.186,1918.1869,2507.186,1914.678,2506.4404C1910.7125,2505.5979,1906.9822,2503.4443,1896.183,2497.2095L808.817133,1869.4789C798.017744,1863.2443,794.2876587,1861.0913,791.5748496,1858.0785C789.1745315,1855.4133,787.3613393,1852.2729,786.2528592,1848.8616C785.000039058472,1845.0062,785.000039058472,1840.6993,785.000039058472,1828.2306L785,572.76923C785,560.30042,785,555.99359,786.2528203,552.13812C787.3613193,548.72668,789.1745119,545.58655,791.5748119,542.92108C794.2876196,539.90851,798.017704,537.75507,808.817095,531.52069L1896.183,-96.2100401ZM977,656.12677L1920,111.73768999999999L2863,656.12671L2863,1744.8729L1920.0002,2289.2617L977.00005,1744.8728L977,656.12677Z" fill-rule="evenodd" fill="#FFFFFF" fill-opacity="0.3499999940395355"/></g><g style="opacity:0.8999999761581421;" filter="url(#master_svgd_149_030)"><path d="M1903.43988,306.7439466C1910.87891,302.449271,1913.44849,300.96589863,1916.1801799999998,300.38529742C1918.5972900000002,299.87156728,1921.0953399999999,299.87156749,1923.51251,300.38529781C1926.24402,300.96589941,1928.81354,302.4492722,1936.25262,306.7439494L2685.286,739.16476C2692.7251,743.4594099999999,2695.2946,744.94281,2697.1633,747.0180399999999C2698.8167000000003,748.85428,2700.0658000000003,751.01743,2700.8292,753.36734C2701.6926000000003,756.02322,2701.6926000000003,758.99005,2701.6926000000003,767.57938L2701.6926000000003,1632.4208C2701.6926000000003,1641.0101,2701.6926000000003,1643.9771,2700.8292,1646.6328C2700.0658000000003,1648.9827,2698.8167000000003,1651.146,2697.1633,1652.9821C2695.2946,1655.0575,2692.7251,1656.5405,2685.286,1660.8353L1936.25262,2093.2561C1928.81354,2097.551,1926.24402,2099.0344,1923.51251,2099.6149C1921.09528,2100.1287,1918.5972299999999,2100.1287,1916.1801799999998,2099.6149C1913.44849,2099.0344,1910.87891,2097.551,1903.43988,2093.2561L1154.406464,1660.8353C1146.9672899,1656.5405,1144.3978152,1655.0575,1142.5290937,1652.9821C1140.8756313,1651.1461,1139.6266116,1648.9828,1138.86303365,1646.6328C1138.000026905482,1643.9771,1138.000026905482,1641.0101,1138.000026905482,1632.4208L1138,767.57938C1138,758.99005,1138,756.02322,1138.86300689,753.36734C1139.6265979,751.01736,1140.875618,748.8542199999999,1142.529068,747.0180399999999C1144.3977885,744.94281,1146.9672623,743.4594099999999,1154.406437,739.16476L1903.43988,306.7439466Z" fill="url(#master_svge_60_9009)" fill-opacity="1"/><path d="M1903.43988,306.7439466C1910.87891,302.449271,1913.44849,300.96589863,1916.1801799999998,300.38529742C1918.5972900000002,299.87156728,1921.0953399999999,299.87156749,1923.51251,300.38529781C1926.24402,300.96589941,1928.81354,302.4492722,1936.25262,306.7439494L2685.286,739.16476C2692.7251,743.4594099999999,2695.2946,744.94281,2697.1633,747.0180399999999C2698.8167000000003,748.85428,2700.0658000000003,751.01743,2700.8292,753.36734C2701.6926000000003,756.02322,2701.6926000000003,758.99005,2701.6926000000003,767.57938L2701.6926000000003,1632.4208C2701.6926000000003,1641.0101,2701.6926000000003,1643.9771,2700.8292,1646.6328C2700.0658000000003,1648.9827,2698.8167000000003,1651.146,2697.1633,1652.9821C2695.2946,1655.0575,2692.7251,1656.5405,2685.286,1660.8353L1936.25262,2093.2561C1928.81354,2097.551,1926.24402,2099.0344,1923.51251,2099.6149C1921.09528,2100.1287,1918.5972299999999,2100.1287,1916.1801799999998,2099.6149C1913.44849,2099.0344,1910.87891,2097.551,1903.43988,2093.2561L1154.406464,1660.8353C1146.9672899,1656.5405,1144.3978152,1655.0575,1142.5290937,1652.9821C1140.8756313,1651.1461,1139.6266116,1648.9828,1138.86303365,1646.6328C1138.000026905482,1643.9771,1138.000026905482,1641.0101,1138.000026905482,1632.4208L1138,767.57938C1138,758.99005,1138,756.02322,1138.86300689,753.36734C1139.6265979,751.01736,1140.875618,748.8542199999999,1142.529068,747.0180399999999C1144.3977885,744.94281,1146.9672623,743.4594099999999,1154.406437,739.16476L1903.43988,306.7439466Z" fill="url(#master_svgf_60_9010)" fill-opacity="1"/><path d="M1903.43988,306.7439466C1910.87891,302.449271,1913.44849,300.96589863,1916.1801799999998,300.38529742C1918.5972900000002,299.87156728,1921.0953399999999,299.87156749,1923.51251,300.38529781C1926.24402,300.96589941,1928.81354,302.4492722,1936.25262,306.7439494L2685.286,739.16476C2692.7251,743.4594099999999,2695.2946,744.94281,2697.1633,747.0180399999999C2698.8167000000003,748.85428,2700.0658000000003,751.01743,2700.8292,753.36734C2701.6926000000003,756.02322,2701.6926000000003,758.99005,2701.6926000000003,767.57938L2701.6926000000003,1632.4208C2701.6926000000003,1641.0101,2701.6926000000003,1643.9771,2700.8292,1646.6328C2700.0658000000003,1648.9827,2698.8167000000003,1651.146,2697.1633,1652.9821C2695.2946,1655.0575,2692.7251,1656.5405,2685.286,1660.8353L1936.25262,2093.2561C1928.81354,2097.551,1926.24402,2099.0344,1923.51251,2099.6149C1921.09528,2100.1287,1918.5972299999999,2100.1287,1916.1801799999998,2099.6149C1913.44849,2099.0344,1910.87891,2097.551,1903.43988,2093.2561L1154.406464,1660.8353C1146.9672899,1656.5405,1144.3978152,1655.0575,1142.5290937,1652.9821C1140.8756313,1651.1461,1139.6266116,1648.9828,1138.86303365,1646.6328C1138.000026905482,1643.9771,1138.000026905482,1641.0101,1138.000026905482,1632.4208L1138,767.57938C1138,758.99005,1138,756.02322,1138.86300689,753.36734C1139.6265979,751.01736,1140.875618,748.8542199999999,1142.529068,747.0180399999999C1144.3977885,744.94281,1146.9672623,743.4594099999999,1154.406437,739.16476L1903.43988,306.7439466ZM1330,859.49188L1919.84625,518.97064L2509.6926000000003,859.492L2509.6926000000003,1540.5081L1919.84619,1881.0294L1330.00003,1540.5082L1330,859.49188Z" fill-rule="evenodd" fill="#FFFFFF" fill-opacity="0.3499999940395355"/></g><g clip-path="url(#master_svgg_149_76)"><g filter="url(#master_svgh_149_84)"><path d="M1911.66217,723.5920093C1915.62415,721.3045483,1916.99261,720.5144639,1918.44748,720.20521986C1919.7348299999999,719.931593239,1921.06528,719.931593351,1922.35257,720.20522009C1923.80737,720.51446432,1925.1758399999999,721.3045489,1929.13782,723.5920107L2328.0621300000003,953.9110900000001C2332.02411,956.19853,2333.3925799999997,956.9886300000001,2334.38788,958.09395C2335.26837,959.07199,2335.93359,960.22415,2336.34027,961.47577C2336.79999,962.89037,2336.79999,964.47057,2336.79999,969.04547L2336.79999,1429.68353C2336.79999,1434.2584200000001,2336.79999,1435.8386799999998,2336.34027,1437.25323C2335.93359,1438.50482,2335.26837,1439.6571,2334.38788,1440.63501C2333.3925799999997,1441.74042,2332.02411,1442.5304,2328.0621300000003,1444.8179300000002L1929.13782,1675.13696C1925.1758399999999,1677.4245,1923.80737,1678.2146,1922.35257,1678.5238C1921.06525,1678.7974199999999,1919.7348,1678.7974199999999,1918.44748,1678.5238C1916.99261,1678.2146,1915.62415,1677.4245,1911.66217,1675.13696L1512.7378454,1444.8179300000002C1508.7758489,1442.5304,1507.4073837,1441.74042,1506.4121299,1440.63501C1505.5315197,1439.65717,1504.86630976,1438.50488,1504.45963925,1437.25323C1504.000014329471,1435.8386799999998,1504.000014329471,1434.2584200000001,1504.000014329471,1429.68353L1504,969.04547C1504,964.47057,1504,962.89037,1504.45962501,961.47577C1504.86630255,960.22412,1505.5315125,959.07195,1506.4121161,958.09395C1507.4073694,956.9886300000001,1508.7758341,956.19853,1512.7378311,953.9110900000001L1911.66217,723.5920093Z" fill="url(#master_svgi_60_9009)" fill-opacity="1"/><path d="M1911.66217,723.5920093C1915.62415,721.3045483,1916.99261,720.5144639,1918.44748,720.20521986C1919.7348299999999,719.931593239,1921.06528,719.931593351,1922.35257,720.20522009C1923.80737,720.51446432,1925.1758399999999,721.3045489,1929.13782,723.5920107L2328.0621300000003,953.9110900000001C2332.02411,956.19853,2333.3925799999997,956.9886300000001,2334.38788,958.09395C2335.26837,959.07199,2335.93359,960.22415,2336.34027,961.47577C2336.79999,962.89037,2336.79999,964.47057,2336.79999,969.04547L2336.79999,1429.68353C2336.79999,1434.2584200000001,2336.79999,1435.8386799999998,2336.34027,1437.25323C2335.93359,1438.50482,2335.26837,1439.6571,2334.38788,1440.63501C2333.3925799999997,1441.74042,2332.02411,1442.5304,2328.0621300000003,1444.8179300000002L1929.13782,1675.13696C1925.1758399999999,1677.4245,1923.80737,1678.2146,1922.35257,1678.5238C1921.06525,1678.7974199999999,1919.7348,1678.7974199999999,1918.44748,1678.5238C1916.99261,1678.2146,1915.62415,1677.4245,1911.66217,1675.13696L1512.7378454,1444.8179300000002C1508.7758489,1442.5304,1507.4073837,1441.74042,1506.4121299,1440.63501C1505.5315197,1439.65717,1504.86630976,1438.50488,1504.45963925,1437.25323C1504.000014329471,1435.8386799999998,1504.000014329471,1434.2584200000001,1504.000014329471,1429.68353L1504,969.04547C1504,964.47057,1504,962.89037,1504.45962501,961.47577C1504.86630255,960.22412,1505.5315125,959.07195,1506.4121161,958.09395C1507.4073694,956.9886300000001,1508.7758341,956.19853,1512.7378311,953.9110900000001L1911.66217,723.5920093Z" fill="url(#master_svgj_60_9010)" fill-opacity="1"/><path d="M1911.66217,723.5920093C1915.62415,721.3045483,1916.99261,720.5144639,1918.44748,720.20521986C1919.7348299999999,719.931593239,1921.06528,719.931593351,1922.35257,720.20522009C1923.80737,720.51446432,1925.1758399999999,721.3045489,1929.13782,723.5920107L2328.0621300000003,953.9110900000001C2332.02411,956.19853,2333.3925799999997,956.9886300000001,2334.38788,958.09395C2335.26837,959.07199,2335.93359,960.22415,2336.34027,961.47577C2336.79999,962.89037,2336.79999,964.47057,2336.79999,969.04547L2336.79999,1429.68353C2336.79999,1434.2584200000001,2336.79999,1435.8386799999998,2336.34027,1437.25323C2335.93359,1438.50482,2335.26837,1439.6571,2334.38788,1440.63501C2333.3925799999997,1441.74042,2332.02411,1442.5304,2328.0621300000003,1444.8179300000002L1929.13782,1675.13696C1925.1758399999999,1677.4245,1923.80737,1678.2146,1922.35257,1678.5238C1921.06525,1678.7974199999999,1919.7348,1678.7974199999999,1918.44748,1678.5238C1916.99261,1678.2146,1915.62415,1677.4245,1911.66217,1675.13696L1512.7378454,1444.8179300000002C1508.7758489,1442.5304,1507.4073837,1441.74042,1506.4121299,1440.63501C1505.5315197,1439.65717,1504.86630976,1438.50488,1504.45963925,1437.25323C1504.000014329471,1435.8386799999998,1504.000014329471,1434.2584200000001,1504.000014329471,1429.68353L1504,969.04547C1504,964.47057,1504,962.89037,1504.45962501,961.47577C1504.86630255,960.22412,1505.5315125,959.07195,1506.4121161,958.09395C1507.4073694,956.9886300000001,1508.7758341,956.19853,1512.7378311,953.9110900000001L1911.66217,723.5920093ZM1696,1069.80713L1920.39999,940.24973L2144.79999,1069.80713L2144.79999,1328.9218799999999L1920.40002,1458.4792499999999L1696.00002,1328.9218799999999L1696,1069.80713Z" fill-rule="evenodd" fill="#FFFFFF" fill-opacity="0.3499999940395355"/></g><g clip-path="url(#master_svgk_149_85)"><g filter="url(#master_svgl_149_86)"><g><path d="M1962.00003,932C2034.60004,932,2107.20004,932,2182,932C2182,1004.600006,2182,1077.20001,2182,1152.00002C2167.48004,1152.00002,2152.96005,1152.00002,2138.00003,1152.00002C2138.00003,1166.52002,2138.00003,1181.04001,2138.00003,1196C2123.48004,1196,2108.96005,1196,2094.00003,1196C2094.00003,1210.52002,2094.00003,1225.04001,2094.00003,1240.00003C2079.48004,1240.00003,2064.96005,1240.00003,2050.00003,1240.00003C2050.00003,1254.52002,2050.00003,1269.04001,2050.00003,1284.00003C2035.48004,1284.00003,2020.9600500000001,1284.00003,2006.00003,1284.00003C2006.00003,1298.52008,2006.00003,1313.04001,2006.00003,1328.00003C1991.48001,1328.00003,1976.9600500000001,1328.00003,1962.00003,1328.00003C1962.00003,1342.52008,1962.00003,1357.0400399999999,1962.00003,1372.00003C1947.48001,1372.00003,1932.9600500000001,1372.00003,1918,1372.00003C1918,1386.52008,1918,1401.0400399999999,1918,1416.00003C1903.48003,1416.00003,1888.96002,1416.00003,1874.00002,1416.00003C1874.00002,1430.52008,1874.00002,1445.0400399999999,1874.00002,1460C1859.48003,1460,1844.96002,1460,1830.00002,1460C1830.00002,1474.52008,1830.00002,1489.0400399999999,1830.00002,1504.0000599999998C1800.96002,1504.0000599999998,1771.92001,1504.0000599999998,1742.000008,1504.0000599999998C1742.000008,1489.48004,1742.000008,1474.9600799999998,1742.000008,1460C1727.480011,1460,1712.960011,1460,1698.000004,1460C1698.000004,1445.48004,1698.000004,1430.9600500000001,1698.000004,1416.00003C1683.480005,1416.00003,1668.960008,1416.00003,1654,1416.00003C1654,1357.92004,1654,1299.84003,1654,1240.00003C1668.520015,1240.00003,1683.039997,1240.00003,1698.000004,1240.00003C1698.000004,1225.48001,1698.000004,1210.9600500000001,1698.000004,1196C1712.52,1196,1727.040001,1196,1742.000008,1196C1742.000008,1181.48003,1742.000008,1166.96002,1742.000008,1152.00002C1756.52,1152.00002,1771.04,1152.00002,1786,1152.00002C1786,1137.48003,1786,1122.96002,1786,1108.00002C1800.52,1108.00002,1815.03999,1108.00002,1830.00002,1108.00002C1830.00002,1093.48003,1830.00002,1078.96002,1830.00002,1064C1844.52,1064,1859.04001,1064,1874.00002,1064C1874.00002,1049.48001,1874.00002,1034.96001,1874.00002,1020.000008C1888.52002,1020.000008,1903.04001,1020.000008,1918,1020.000008C1918,1005.480011,1918,990.960007,1918,976.000004C1932.52002,976.000004,1947.04001,976.000004,1962.00003,976.000004C1962.00003,961.480003,1962.00003,946.960001,1962.00003,932Z" fill="#B38EF3" fill-opacity="1" style="mix-blend-mode:passthrough"/></g><g><path d="M1698.000004,1196C1712.520004,1196,1727.040016,1196,1742.000008,1196C1742.000008,1210.520001,1742.000008,1225.040003,1742.000008,1240.000004C1771.04001,1240.000004,1800.08003,1240.000004,1830.00002,1240.000004C1830.00002,1254.520004,1830.00002,1269.040016,1830.00002,1284.000008C1844.52,1284.000008,1859.04001,1284.000008,1874.00002,1284.000008C1874.00002,1313.04001,1874.00002,1342.08003,1874.00002,1372.00002C1888.52002,1372.00002,1903.04001,1372.00002,1918,1372.00002C1918,1386.52,1918,1401.04001,1918,1416.00002C1903.48003,1416.00002,1888.96002,1416.00002,1874.00002,1416.00002C1874.00002,1430.52002,1874.00002,1445.04001,1874.00002,1460C1859.48003,1460,1844.96002,1460,1830.00002,1460C1830.00002,1474.52002,1830.00002,1489.04001,1830.00002,1504.00003C1800.96002,1504.00003,1771.92001,1504.00003,1742.000008,1504.00003C1742.000008,1489.48001,1742.000008,1474.9600500000001,1742.000008,1460C1727.480011,1460,1712.960007,1460,1698.000004,1460C1698.000004,1445.48003,1698.000004,1430.96002,1698.000004,1416.00002C1683.480003,1416.00002,1668.960001,1416.00002,1654,1416.00002C1654,1357.92001,1654,1299.84002,1654,1240.000004C1668.520001,1240.000004,1683.040003,1240.000004,1698.000004,1240.000004C1698.000004,1225.480003,1698.000004,1210.960001,1698.000004,1196Z" fill="#8D6ACC" fill-opacity="1" style="mix-blend-mode:passthrough"/></g><g><path d="M1962,932C2034.600006,932,2107.20001,932,2182.00002,932C2182.00002,1004.600006,2182.00002,1077.20001,2182.00002,1152.00002C2167.48003,1152.00002,2152.96002,1152.00002,2138.00002,1152.00002C2138.00002,1166.52002,2138.00002,1181.04001,2138.00002,1196C2123.48003,1196,2108.96002,1196,2094,1196C2094,1210.52002,2094,1225.04001,2094,1240.00003C2079.48001,1240.00003,2064.96001,1240.00003,2050.000008,1240.00003C2050.000008,1254.52002,2050.000008,1269.04001,2050.000008,1284.00003C2035.480011,1284.00003,2020.960007,1284.00003,2006.000004,1284.00003C2006.000004,1225.92004,2006.000004,1167.84003,2006.000004,1108.00002C2035.040016,1108.00002,2064.08002,1108.00002,2094,1108.00002C2094,1093.48003,2094,1078.96002,2094,1064C2108.52,1064,2123.03999,1064,2138.00002,1064C2138.00002,1034.96001,2138.00002,1005.919998,2138.00002,976.000004C2079.92001,976.000004,2021.840004,976.000004,1962,976.000004C1962,961.480003,1962,946.960001,1962,932Z" fill="#6F4FAB" fill-opacity="1" style="mix-blend-mode:passthrough"/></g><g><path d="M1830.000008,1064C1859.04001,1064,1888.08003,1064,1918.00002,1064C1918.00002,1165.64001,1918.00002,1267.28003,1918.00002,1372.00003C1903.48003,1372.00003,1888.96002,1372.00003,1874,1372.00003C1874,1342.9600500000001,1874,1313.92001,1874,1284.00002C1859.48001,1284.00002,1844.96001,1284.00002,1830.000008,1284.00002C1830.000008,1269.48003,1830.000008,1254.96002,1830.000008,1240.00002C1800.960007,1240.00002,1771.920002,1240.00002,1742,1240.00002C1742,1210.96002,1742,1181.92001,1742,1152.000008C1756.519999,1152.000008,1771.040003,1152.000008,1786.000004,1152.000008C1786.000004,1137.480011,1786.000004,1122.960007,1786.000004,1108.000004C1800.520004,1108.000004,1815.040016,1108.000004,1830.000008,1108.000004C1830.000008,1093.480003,1830.000008,1078.960001,1830.000008,1064Z" fill="#CFA0F3" fill-opacity="1" style="mix-blend-mode:passthrough"/></g><g><path d="M1654,1284C1668.520001,1284,1683.040003,1284,1698.000004,1284C1698.000004,1298.520001,1698.000004,1313.040003,1698.000004,1328.000004C1741.560005,1328.000004,1785.12001,1328.000004,1830.00002,1328.000004C1830.00002,1357.040016,1830.00002,1386.08002,1830.00002,1416C1815.48003,1416,1800.96002,1416,1786,1416C1786,1430.52,1786,1445.03999,1786,1460.00002C1800.52,1460.00002,1815.03999,1460.00002,1830.00002,1460.00002C1830.00002,1474.52,1830.00002,1489.04001,1830.00002,1504.00002C1800.96002,1504.00002,1771.92001,1504.00002,1742.000008,1504.00002C1742.000008,1489.48003,1742.000008,1474.96002,1742.000008,1460.00002C1727.480011,1460.00002,1712.960007,1460.00002,1698.000004,1460.00002C1698.000004,1445.48003,1698.000004,1430.96002,1698.000004,1416C1683.480003,1416,1668.960001,1416,1654,1416C1654,1372.440002,1654,1328.880001,1654,1284Z" fill="#54398A" fill-opacity="1" style="mix-blend-mode:passthrough"/></g><g><path d="M1962,976C2020.080006,976,2078.16001,976,2138.00002,976C2138.00002,1005.040003,2138.00002,1034.080006,2138.00002,1064.000008C2123.48003,1064.000008,2108.96002,1064.000008,2094,1064.000008C2094,1078.52,2094,1093.04001,2094,1108C2064.96001,1108,2035.919998,1108,2006.000004,1108C2006.000004,1093.48001,2006.000004,1078.96001,2006.000004,1064.000008C1991.480003,1064.000008,1976.960001,1064.000008,1962,1064.000008C1962,1034.960007,1962,1005.920002,1962,976Z" fill="#FECBE6" fill-opacity="1" style="mix-blend-mode:passthrough"/></g><g><path d="M1962,932C2034.600006,932,2107.20001,932,2182.00002,932C2182.00002,1004.600006,2182.00002,1077.20001,2182.00002,1152.00002C2167.48003,1152.00002,2152.96002,1152.00002,2138.00002,1152.00002C2138.00002,1093.92001,2138.00002,1035.84002,2138.00002,976.000004C2079.92001,976.000004,2021.840004,976.000004,1962,976.000004C1962,961.480003,1962,946.960001,1962,932Z" fill="#6F4FAB" fill-opacity="1" style="mix-blend-mode:passthrough"/></g><g><path d="M1874.000004,1064C1888.520004,1064,1903.040016,1064,1918.000008,1064C1918.000008,1165.64001,1918.000008,1267.28003,1918.000008,1372.00003C1903.480011,1372.00003,1888.960007,1372.00003,1874.000004,1372.00003C1874.000004,1342.9600500000001,1874.000004,1313.92001,1874.000004,1284.00002C1859.480003,1284.00002,1844.960001,1284.00002,1830,1284.00002C1830,1269.48003,1830,1254.96002,1830,1240.00002C1844.520001,1240.00002,1859.040003,1240.00002,1874.000004,1240.00002C1874.000004,1181.92001,1874.000004,1123.840004,1874.000004,1064Z" fill="#B38EF3" fill-opacity="1" style="mix-blend-mode:passthrough"/></g><g><path d="M1698.000004,1196C1712.520004,1196,1727.040016,1196,1742.000008,1196C1742.000008,1210.520001,1742.000008,1225.040003,1742.000008,1240.000004C1771.04001,1240.000004,1800.08003,1240.000004,1830.00002,1240.000004C1830.00002,1254.520004,1830.00002,1269.040016,1830.00002,1284.000008C1815.48003,1284.000008,1800.96002,1284.000008,1786,1284.000008C1786,1298.52,1786,1313.04001,1786,1328C1756.96001,1328,1727.919998,1328,1698.000004,1328C1698.000004,1313.48001,1698.000004,1298.96001,1698.000004,1284.000008C1683.480003,1284.000008,1668.960001,1284.000008,1654,1284.000008C1654,1269.480011,1654,1254.960007,1654,1240.000004C1668.520001,1240.000004,1683.040003,1240.000004,1698.000004,1240.000004C1698.000004,1225.480003,1698.000004,1210.960001,1698.000004,1196Z" fill="#8D6ACC" fill-opacity="1" style="mix-blend-mode:passthrough"/></g><g><path d="M1918,1196C1932.520001,1196,1947.040003,1196,1962.000004,1196C1962.000004,1225.040003,1962.000004,1254.080006,1962.000004,1284.000008C1976.520004,1284.000008,1991.040016,1284.000008,2006.000008,1284.000008C2006.000008,1298.52,2006.000008,1313.04001,2006.000008,1328C1991.480011,1328,1976.960007,1328,1962.000004,1328C1962.000004,1342.52,1962.000004,1357.03999,1962.000004,1372.00002C1947.480003,1372.00002,1932.960001,1372.00002,1918,1372.00002C1918,1313.92001,1918,1255.840004,1918,1196Z" fill="#6F4FAB" fill-opacity="1" style="mix-blend-mode:passthrough"/></g><g><path d="M2094.000004,1064C2108.520004,1064,2123.040016,1064,2138.000008,1064C2138.000008,1107.560001,2138.000008,1151.120003,2138.000008,1196C2108.960007,1196,2079.920002,1196,2050,1196C2050,1166.96001,2050,1137.919998,2050,1108.000004C2064.520001,1108.000004,2079.040003,1108.000004,2094.000004,1108.000004C2094.000004,1093.480003,2094.000004,1078.960001,2094.000004,1064Z" fill="#8D6ACC" fill-opacity="1" style="mix-blend-mode:passthrough"/></g><g><path d="M1742,1152C1771.040003,1152,1800.080006,1152,1830.000008,1152C1830.000008,1181.040003,1830.000008,1210.080006,1830.000008,1240.000008C1800.960007,1240.000008,1771.920002,1240.000008,1742,1240.000008C1742,1210.960007,1742,1181.920002,1742,1152Z" fill="#B38EF3" fill-opacity="1" style="mix-blend-mode:passthrough"/></g><g><path d="M1874,1064C1888.520001,1064,1903.040003,1064,1918.000004,1064C1918.000004,1122.080006,1918.000004,1180.16001,1918.000004,1240.00002C1903.480003,1240.00002,1888.960001,1240.00002,1874,1240.00002C1874,1181.92001,1874,1123.840004,1874,1064Z" fill="#FECBE6" fill-opacity="1" style="mix-blend-mode:passthrough"/></g><g><path d="M2138,976C2152.520001,976,2167.040003,976,2182.000004,976C2182.000004,1034.080006,2182.000004,1092.16001,2182.000004,1152.00002C2167.480003,1152.00002,2152.960001,1152.00002,2138,1152.00002C2138,1093.92001,2138,1035.840004,2138,976Z" fill="#54398A" fill-opacity="1" style="mix-blend-mode:passthrough"/></g><g><path d="M1962,1152C1976.520001,1152,1991.040003,1152,2006.000004,1152C2006.000004,1195.560001,2006.000004,1239.120003,2006.000004,1284C1991.480003,1284,1976.960001,1284,1962,1284C1962,1240.440002,1962,1196.880001,1962,1152Z" fill="#8D6ACC" fill-opacity="1" style="mix-blend-mode:passthrough"/></g><g><path d="M1742,1460C1771.040003,1460,1800.080006,1460,1830.000008,1460C1830.000008,1474.520001,1830.000008,1489.040003,1830.000008,1504.000004C1800.960007,1504.000004,1771.920002,1504.000004,1742,1504.000004C1742,1489.480003,1742,1474.960001,1742,1460Z" fill="#6F4FAB" fill-opacity="1" style="mix-blend-mode:passthrough"/></g><g><path d="M1786,1416C1815.040003,1416,1844.080006,1416,1874.000008,1416C1874.000008,1430.520001,1874.000008,1445.040003,1874.000008,1460.000004C1844.960007,1460.000004,1815.920002,1460.000004,1786,1460.000004C1786,1445.480003,1786,1430.960001,1786,1416Z" fill="#6F4FAB" fill-opacity="1" style="mix-blend-mode:passthrough"/></g><g><path d="M1786,1416C1800.520001,1416,1815.040003,1416,1830.000004,1416C1830.000004,1430.520001,1830.000004,1445.040003,1830.000004,1460.000004C1815.480003,1460.000004,1800.960001,1460.000004,1786,1460.000004C1786,1445.480003,1786,1430.960001,1786,1416Z" fill="#8D6ACC" fill-opacity="1" style="mix-blend-mode:passthrough"/></g><g><path d="M1874,1372C1888.520001,1372,1903.040003,1372,1918.000004,1372C1918.000004,1386.520001,1918.000004,1401.040003,1918.000004,1416.000004C1903.480003,1416.000004,1888.960001,1416.000004,1874,1416.000004C1874,1401.480003,1874,1386.960001,1874,1372Z" fill="#54398A" fill-opacity="1" style="mix-blend-mode:passthrough"/></g><g><path d="M1742,1372C1756.520001,1372,1771.040003,1372,1786.000004,1372C1786.000004,1386.520001,1786.000004,1401.040003,1786.000004,1416.000004C1771.480003,1416.000004,1756.960001,1416.000004,1742,1416.000004C1742,1401.480003,1742,1386.960001,1742,1372Z" fill="#6F4FAB" fill-opacity="1" style="mix-blend-mode:passthrough"/></g><g><path d="M1918,1328C1932.520001,1328,1947.040003,1328,1962.000004,1328C1962.000004,1342.520001,1962.000004,1357.040003,1962.000004,1372.000004C1947.480003,1372.000004,1932.960001,1372.000004,1918,1372.000004C1918,1357.480003,1918,1342.960001,1918,1328Z" fill="#54398A" fill-opacity="1" style="mix-blend-mode:passthrough"/></g><g><path d="M1786,1328C1800.520001,1328,1815.040003,1328,1830.000004,1328C1830.000004,1342.520001,1830.000004,1357.040003,1830.000004,1372.000004C1815.480003,1372.000004,1800.960001,1372.000004,1786,1372.000004C1786,1357.480003,1786,1342.960001,1786,1328Z" fill="#6F4FAB" fill-opacity="1" style="mix-blend-mode:passthrough"/></g><g><path d="M1962,1284C1976.520001,1284,1991.040003,1284,2006.000004,1284C2006.000004,1298.520001,2006.000004,1313.040003,2006.000004,1328.000004C1991.480003,1328.000004,1976.960001,1328.000004,1962,1328.000004C1962,1313.480003,1962,1298.960001,1962,1284Z" fill="#54398A" fill-opacity="1" style="mix-blend-mode:passthrough"/></g><g><path d="M1786,1284C1800.520001,1284,1815.040003,1284,1830.000004,1284C1830.000004,1298.520001,1830.000004,1313.040003,1830.000004,1328.000004C1815.480003,1328.000004,1800.960001,1328.000004,1786,1328.000004C1786,1313.480003,1786,1298.960001,1786,1284Z" fill="#B38EF3" fill-opacity="1" style="mix-blend-mode:passthrough"/></g><g><path d="M1698,1284C1712.520001,1284,1727.040003,1284,1742.000004,1284C1742.000004,1298.520001,1742.000004,1313.040003,1742.000004,1328.000004C1727.480003,1328.000004,1712.960001,1328.000004,1698,1328.000004C1698,1313.480003,1698,1298.960001,1698,1284Z" fill="#6F4FAB" fill-opacity="1" style="mix-blend-mode:passthrough"/></g><g><path d="M2006,1240C2020.520001,1240,2035.040003,1240,2050.000004,1240C2050.000004,1254.520001,2050.000004,1269.040003,2050.000004,1284.000004C2035.480003,1284.000004,2020.960001,1284.000004,2006,1284.000004C2006,1269.480003,2006,1254.960001,2006,1240Z" fill="#54398A" fill-opacity="1" style="mix-blend-mode:passthrough"/></g><g><path d="M1830,1240C1844.520001,1240,1859.040003,1240,1874.000004,1240C1874.000004,1254.520001,1874.000004,1269.040003,1874.000004,1284.000004C1859.480003,1284.000004,1844.960001,1284.000004,1830,1284.000004C1830,1269.480003,1830,1254.960001,1830,1240Z" fill="#FECBE6" fill-opacity="1" style="mix-blend-mode:passthrough"/></g><g><path d="M1654,1240C1668.520001,1240,1683.040003,1240,1698.000004,1240C1698.000004,1254.520001,1698.000004,1269.040003,1698.000004,1284.000004C1683.480003,1284.000004,1668.960001,1284.000004,1654,1284.000004C1654,1269.480003,1654,1254.960001,1654,1240Z" fill="#6F4FAB" fill-opacity="1" style="mix-blend-mode:passthrough"/></g><g><path d="M2050,1196C2064.520001,1196,2079.040003,1196,2094.000004,1196C2094.000004,1210.520001,2094.000004,1225.040003,2094.000004,1240.000004C2079.480003,1240.000004,2064.960001,1240.000004,2050,1240.000004C2050,1225.480003,2050,1210.960001,2050,1196Z" fill="#54398A" fill-opacity="1" style="mix-blend-mode:passthrough"/></g><g><path d="M1874,1196C1888.520001,1196,1903.040003,1196,1918.000004,1196C1918.000004,1210.520001,1918.000004,1225.040003,1918.000004,1240.000004C1903.480003,1240.000004,1888.960001,1240.000004,1874,1240.000004C1874,1225.480003,1874,1210.960001,1874,1196Z" fill="#FFFDD5" fill-opacity="1" style="mix-blend-mode:passthrough"/></g><g><path d="M1698,1196C1712.520001,1196,1727.040003,1196,1742.000004,1196C1742.000004,1210.520001,1742.000004,1225.040003,1742.000004,1240.000004C1727.480003,1240.000004,1712.960001,1240.000004,1698,1240.000004C1698,1225.480003,1698,1210.960001,1698,1196Z" fill="#6F4FAB" fill-opacity="1" style="mix-blend-mode:passthrough"/></g><g><path d="M2094,1152C2108.520001,1152,2123.040003,1152,2138.000004,1152C2138.000004,1166.520001,2138.000004,1181.040003,2138.000004,1196.000004C2123.480003,1196.000004,2108.960001,1196.000004,2094,1196.000004C2094,1181.480003,2094,1166.960001,2094,1152Z" fill="#54398A" fill-opacity="1" style="mix-blend-mode:passthrough"/></g><g><path d="M1918,1152C1932.520001,1152,1947.040003,1152,1962.000004,1152C1962.000004,1166.520001,1962.000004,1181.040003,1962.000004,1196.000004C1947.480003,1196.000004,1932.960001,1196.000004,1918,1196.000004C1918,1181.480003,1918,1166.960001,1918,1152Z" fill="#CFA0F3" fill-opacity="1" style="mix-blend-mode:passthrough"/></g><g><path d="M1742,1152C1756.520001,1152,1771.040003,1152,1786.000004,1152C1786.000004,1166.520001,1786.000004,1181.040003,1786.000004,1196.000004C1771.480003,1196.000004,1756.960001,1196.000004,1742,1196.000004C1742,1181.480003,1742,1166.960001,1742,1152Z" fill="#6F4FAB" fill-opacity="1" style="mix-blend-mode:passthrough"/></g><g><path d="M1962,1108C1976.520001,1108,1991.040003,1108,2006.000004,1108C2006.000004,1122.520001,2006.000004,1137.040003,2006.000004,1152.000004C1991.480003,1152.000004,1976.960001,1152.000004,1962,1152.000004C1962,1137.480003,1962,1122.960001,1962,1108Z" fill="#CFA0F3" fill-opacity="1" style="mix-blend-mode:passthrough"/></g><g><path d="M1786,1108C1800.520001,1108,1815.040003,1108,1830.000004,1108C1830.000004,1122.520001,1830.000004,1137.040003,1830.000004,1152.000004C1815.480003,1152.000004,1800.960001,1152.000004,1786,1152.000004C1786,1137.480003,1786,1122.960001,1786,1108Z" fill="#6F4FAB" fill-opacity="1" style="mix-blend-mode:passthrough"/></g><g><path d="M2050,1064C2064.520001,1064,2079.040003,1064,2094.000004,1064C2094.000004,1078.520001,2094.000004,1093.040003,2094.000004,1108.000004C2079.480003,1108.000004,2064.960001,1108.000004,2050,1108.000004C2050,1093.480003,2050,1078.960001,2050,1064Z" fill="#CFA0F3" fill-opacity="1" style="mix-blend-mode:passthrough"/></g><g><path d="M2006,1064C2020.520001,1064,2035.040003,1064,2050.000004,1064C2050.000004,1078.520001,2050.000004,1093.040003,2050.000004,1108.000004C2035.480003,1108.000004,2020.960001,1108.000004,2006,1108.000004C2006,1093.480003,2006,1078.960001,2006,1064Z" fill="#FFFDD5" fill-opacity="1" style="mix-blend-mode:passthrough"/></g><g><path d="M1830,1064C1844.520001,1064,1859.040003,1064,1874.000004,1064C1874.000004,1078.520001,1874.000004,1093.040003,1874.000004,1108.000004C1859.480003,1108.000004,1844.960001,1108.000004,1830,1108.000004C1830,1093.480003,1830,1078.960001,1830,1064Z" fill="#6F4FAB" fill-opacity="1" style="mix-blend-mode:passthrough"/></g><g><path d="M2094,1020C2108.520001,1020,2123.040003,1020,2138.000004,1020C2138.000004,1034.520001,2138.000004,1049.040003,2138.000004,1064.000004C2123.480003,1064.000004,2108.960001,1064.000004,2094,1064.000004C2094,1049.480003,2094,1034.960001,2094,1020Z" fill="#CFA0F3" fill-opacity="1" style="mix-blend-mode:passthrough"/></g><g><path d="M2050,1020C2064.520001,1020,2079.040003,1020,2094.000004,1020C2094.000004,1034.520001,2094.000004,1049.040003,2094.000004,1064.000004C2079.480003,1064.000004,2064.960001,1064.000004,2050,1064.000004C2050,1049.480003,2050,1034.960001,2050,1020Z" fill="#FFFDD5" fill-opacity="1" style="mix-blend-mode:passthrough"/></g><g><path d="M1874,1020C1888.520001,1020,1903.040003,1020,1918.000004,1020C1918.000004,1034.520001,1918.000004,1049.040003,1918.000004,1064.000004C1903.480003,1064.000004,1888.960001,1064.000004,1874,1064.000004C1874,1049.480003,1874,1034.960001,1874,1020Z" fill="#6F4FAB" fill-opacity="1" style="mix-blend-mode:passthrough"/></g><g><path d="M1918,976C1932.520001,976,1947.040003,976,1962.000004,976C1962.000004,990.520001,1962.000004,1005.040003,1962.000004,1020.000004C1947.480003,1020.000004,1932.960001,1020.000004,1918,1020.000004C1918,1005.480003,1918,990.960001,1918,976Z" fill="#6F4FAB" fill-opacity="1" style="mix-blend-mode:passthrough"/></g></g></g></g><g><path d="M1532.084789,1677.11275Q1526.995289,1677.11275,1527.908791,1673.70399L1565.924789,1542.376007L1522.531292,1542.376007Q1520.65929,1542.376007,1520.155289,1541.296005Q1519.651291,1540.216003,1520.324039,1537.624008Q1521.140789,1534.984756,1522.220791,1534.001511Q1523.300789,1533.016006,1525.172791,1533.016006L1621.22078,1533.016006Q1623.18729,1533.016006,1623.57204,1534.048752Q1623.95679,1535.079254,1623.18729,1537.671249Q1622.56404,1540.26326,1621.53128,1541.320755Q1620.50079,1542.376007,1618.62878,1542.376007L1576.099289,1542.376007L1538.036041,1673.70399Q1537.556789,1675.43201,1536.16404,1676.27126Q1534.77129,1677.11275,1532.084789,1677.11275ZM1588.00404,1677.01601Q1585.027283,1676.96875,1584.068787,1675.26324Q1583.108032,1673.56,1584.739288,1670.87125L1669.79604,1534.984756Q1671.47678,1532.487259,1673.03604,1531.528763Q1674.59528,1530.568008,1677.42804,1530.568008Q1679.68478,1530.568008,1680.9807700000001,1531.6480099999999Q1682.27678,1532.728012,1682.42078,1536.08725L1694.32327,1671.78474Q1694.66078,1674.18324,1693.38728,1675.576Q1692.11603,1676.96875,1689.13928,1677.01601Q1686.54727,1677.01601,1685.61128,1676.008Q1684.67528,1675,1684.43678,1672.59924L1681.12479,1633.43124L1619.73129,1633.43124L1595.39529,1672.408Q1593.47604,1675.38475,1592.20254,1676.1992500000001Q1590.93128,1677.01601,1588.00404,1677.01601ZM1625.7320300000001,1624.07126L1680.26077,1624.07126L1673.63678,1546.743256L1625.7320300000001,1624.07126ZM1763.06079,1677.83275Q1752.7400499999999,1677.83275,1744.53204,1674.28Q1736.32404,1670.72725,1730.46729,1663.95924Q1724.61279,1657.19125,1721.56404,1647.32726Q1718.51529,1637.46326,1718.51529,1624.93526Q1718.51529,1614.808,1720.89128,1603.88876Q1723.26729,1592.96725,1727.77853,1582.43275Q1732.29204,1571.896004,1739.03528,1562.560753Q1745.78079,1553.223259,1754.51529,1546.000763Q1763.25204,1538.776001,1774.12402,1534.672012Q1784.99603,1530.568008,1797.62079,1530.568008Q1806.11679,1530.568008,1813.17279,1532.417511Q1820.2287900000001,1534.264755,1825.74805,1538.056Q1831.26727,1541.84726,1835.06079,1547.4632569999999Q1836.1160300000001,1549.047256,1835.5400399999999,1550.127258Q1834.96405,1551.207253,1833.23602,1552.503258Q1831.5553,1553.655258,1830.37854,1553.704758Q1829.20404,1553.752007,1827.4760099999999,1552.071259Q1823.8288,1548.232758,1819.26804,1545.640762Q1814.70728,1543.048752,1809.1160300000001,1541.7775120000001Q1803.52478,1540.504013,1796.27527,1540.504013Q1786.14804,1540.504013,1777.33929,1544.009506Q1768.53278,1547.512756,1761.09204,1553.848755Q1753.65128,1560.184753,1747.84402,1568.273506Q1742.03679,1576.36,1737.93279,1585.74475Q1733.82878,1595.12725,1731.69128,1604.77525Q1729.55603,1614.42325,1729.55603,1623.68875Q1729.55603,1634.48875,1731.78804,1642.76875Q1734.02003,1651.04875,1738.43454,1656.6399999999999Q1742.85129,1662.23125,1749.37854,1665.03925Q1755.90802,1667.84724,1764.45129,1667.84724Q1770.93127,1667.84724,1776.88254,1665.68726Q1782.83603,1663.52725,1788.38004,1659.61674Q1793.9240399999999,1655.70399,1799.20251,1650.448Q1804.48328,1645.192,1809.57278,1639Q1810.96329,1637.46326,1812.3313,1637.84801Q1813.69928,1638.23276,1815.09204,1639.576Q1816.82004,1641.11275,1816.9865399999999,1642.3615Q1817.15527,1643.608,1815.76477,1645.48Q1807.2688,1656.71201,1798.2912900000001,1663.86475Q1789.31604,1671.01524,1780.38803,1674.424Q1771.46002,1677.83275,1763.06079,1677.83275ZM1841.49127,1630.504Q1839.57202,1630.504,1839.09055,1629.42401Q1838.6113,1628.34399,1839.42804,1625.752Q1840.19528,1623.11275,1841.15604,1622.1295Q1842.11679,1621.144,1844.03604,1621.144L1890.45129,1621.144Q1892.42004,1621.144,1892.94653,1622.17676Q1893.47528,1623.20724,1892.70804,1625.79926Q1891.8913,1628.3912500000001,1890.85852,1629.44876Q1889.8280300000001,1630.504,1887.90878,1630.504L1841.49127,1630.504ZM1948.00403,1677.73599Q1940.32477,1677.73599,1933.79529,1675.83925Q1927.26804,1673.94475,1922.05927,1670.8015Q1916.85278,1667.65601,1912.84329,1663.84Q1908.83603,1660.024,1906.1472800000001,1656.23276Q1905.04477,1654.696,1905.5487699999999,1653.42474Q1906.05276,1652.15125,1907.3960299999999,1650.90475Q1909.3647799999999,1649.46475,1910.58878,1649.3455Q1911.81277,1649.224,1912.96478,1650.47275Q1916.56479,1654.88725,1921.72403,1658.8Q1926.88327,1662.71275,1933.5072599999999,1665.23276Q1940.13129,1667.75275,1948.00403,1667.75275Q1956.11526,1667.75275,1963.05203,1665.5455Q1969.98877,1663.336,1975.12329,1659.25674Q1980.26001,1655.17525,1983.06802,1649.32076Q1985.87604,1643.464,1985.87604,1636.07275Q1985.87604,1630.83925,1984.1705299999999,1626.71275Q1982.46729,1622.584,1979.29929,1619.1055000000001Q1976.13129,1615.62476,1971.5232799999999,1612.5535Q1966.91528,1609.48001,1960.96402,1606.31201Q1956.21204,1603.72,1951.82004,1600.912Q1947.42804,1598.104,1943.7065400000001,1594.91351Q1939.98727,1591.72076,1937.22653,1587.78551Q1934.46802,1583.84801,1932.88403,1578.90475Q1931.3000200000001,1573.9592499999999,1931.3000200000001,1567.767258Q1931.3000200000001,1559.559258,1934.44327,1552.696754Q1937.58878,1545.832001,1943.42078,1540.888748Q1949.25278,1535.943253,1957.22003,1533.25676Q1965.18729,1530.568008,1974.69128,1530.568008Q1983.0432700000001,1530.568008,1989.62003,1532.872009Q1996.19678,1535.17601,2001.6440400000001,1539.041504Q2007.09125,1542.904755,2011.5080600000001,1547.7512590000001Q2012.85126,1549.096756,2012.5385099999999,1550.464752Q2012.22803,1551.832756,2010.69128,1553.272758Q2009.34802,1554.519257,2007.85852,1554.663254Q2006.3712799999998,1554.807259,2004.9807700000001,1553.704758Q2001.14001,1550.199257,1996.91452,1547.200005Q1992.69128,1544.20076,1987.38803,1542.3535Q1982.0847800000001,1540.504013,1974.59677,1540.504013Q1967.54077,1540.504013,1961.65927,1542.304001Q1955.78003,1544.104004,1951.43527,1547.609505Q1947.09277,1551.112755,1944.62003,1556.200005Q1942.1472800000001,1561.287254,1942.1472800000001,1567.720001Q1942.1472800000001,1573.192,1943.68402,1577.27351Q1945.22076,1581.35275,1948.22003,1584.73676Q1951.21927,1588.12075,1955.82727,1591.1695Q1960.43527,1594.216,1966.53278,1597.528Q1972.96326,1600.9840100000001,1978.41052,1604.68076Q1983.86002,1608.37524,1988.01129,1612.864Q1992.1647600000001,1617.35275,1994.44403,1622.9935Q1996.72327,1628.632,1996.72327,1635.87926Q1996.72327,1645.048,1993.07602,1652.70474Q1989.42877,1660.35925,1982.82727,1665.97525Q1976.22803,1671.59125,1967.3000200000001,1674.66475Q1958.37201,1677.73599,1948.00403,1677.73599ZM2041.0279500000001,1677.448Q2032.1472199999998,1677.448,2026.31525,1673.9695Q2020.48322,1670.48875,2017.60321,1664.29675Q2014.72321,1658.10475,2014.72321,1650.23199Q2014.72321,1641.11275,2017.69995,1632.25674Q2020.6767599999998,1623.40076,2026.19598,1616.1535Q2031.7152099999998,1608.90399,2039.27521,1604.584Q2046.83521,1600.26401,2055.95673,1600.26401Q2062.24323,1600.26401,2066.51599,1602.42401Q2070.7887,1604.584,2072.97125,1608.25601Q2075.15601,1611.92801,2075.15601,1616.82401Q2075.15601,1623.11275,2071.72247,1628.03351Q2068.29126,1632.952,2062.57849,1636.62399Q2056.86798,1640.29601,2049.69049,1642.84076Q2042.5152600000001,1645.38326,2035.02722,1647.11125Q2027.53925,1648.83925,2020.62726,1649.84726L2021.39673,1641.448Q2026.58075,1640.728,2032.4847399999999,1639.45676Q2038.3887300000001,1638.18326,2044.02722,1636.336Q2049.66797,1634.48875,2054.25122,1631.87201Q2058.83673,1629.25525,2061.64471,1625.79926Q2064.45276,1622.34326,2064.45276,1617.73526Q2064.45276,1613.55925,2061.71674,1611.52075Q2058.98071,1609.48001,2054.66071,1609.48001Q2048.3719499999997,1609.48001,2043.0192299999999,1612.9855Q2037.6687,1616.48875,2033.65924,1622.32076Q2029.65198,1628.15276,2027.4425,1635.28075Q2025.23523,1642.40875,2025.23523,1649.41525Q2025.23523,1655.272,2027.06,1659.592Q2028.8847,1663.912,2032.7479899999998,1666.144Q2036.61121,1668.37601,2042.46796,1668.37601Q2044.19598,1668.37601,2044.8439899999998,1669.744Q2045.492,1671.112,2045.25122,1672.912Q2045.01276,1674.71201,2043.93274,1676.08Q2042.8527199999999,1677.448,2041.0279500000001,1677.448ZM2040.93121,1677.448Q2039.63525,1677.448,2039.1087,1676.08Q2038.57996,1674.71201,2038.70148,1672.8895Q2038.8207400000001,1671.06474,2039.80396,1669.7215Q2040.78723,1668.37601,2042.32397,1668.37601Q2048.13123,1668.37601,2054.3952,1665.37675Q2060.65924,1662.37524,2067.95599,1655.46326Q2075.25275,1648.55125,2084.13123,1636.86475Q2093.01196,1625.17599,2104.05273,1607.75201Q2104.77271,1606.60001,2106.33197,1607.12875Q2107.89124,1607.65524,2108.99597,1608.87924Q2110.10071,1610.10326,2109.42798,1611.30475Q2098.43671,1629.496,2089.3647499999997,1642.19275Q2080.29272,1654.88725,2072.2039800000002,1662.616Q2064.11523,1670.34476,2056.48322,1673.89751Q2048.85126,1677.448,2040.93121,1677.448ZM2089.45923,1677.16Q2087.2991899999997,1677.16,2085.88397,1676.3185Q2084.46869,1675.47925,2085.13922,1673.36874L2104.96393,1604.53674Q2105.68396,1602.32726,2106.81122,1601.58475Q2107.94067,1600.84,2110.19519,1600.84Q2113.5567,1600.84,2114.63672,1601.89751Q2115.71667,1602.9527600000001,2114.9967,1605.304L2106.7887,1633.43124Q2111.54071,1624.31201,2115.93268,1618.00075Q2120.32471,1611.68726,2124.37921,1607.77676Q2128.43597,1603.86401,2132.08319,1602.064Q2135.7327299999997,1600.26401,2138.9007,1600.26401Q2141.15521,1600.26401,2141.99445,1601.65675Q2142.83594,1603.04726,2142.61993,1604.91925Q2142.40393,1606.79126,2141.05847,1608.18401Q2139.71521,1609.57675,2137.46069,1609.57675Q2134.33997,1609.57675,2129.77917,1613.46475Q2125.2207,1617.35275,2119.65198,1624.7935Q2114.08319,1632.23199,2108.34796,1642.7935Q2102.61273,1653.35275,2097.2352300000002,1666.74475L2095.0752,1673.94475Q2094.64319,1675.576,2093.3719499999997,1676.368Q2092.10071,1677.16,2089.45923,1677.16ZM2144.80469,1610.3912500000001Q2143.41193,1610.3912500000001,2142.25995,1610.15276Q2141.10797,1609.912,2140.09998,1609.74551Q2139.09198,1609.57675,2137.65198,1609.57675Q2135.5391799999998,1609.57675,2134.67517,1608.18401Q2133.81122,1606.79126,2133.90796,1604.91925Q2134.0047,1603.04726,2135.32318,1601.65675Q2136.64392,1600.26401,2138.94794,1600.26401Q2140.96393,1600.26401,2142.30719,1600.72076Q2143.65271,1601.17526,2144.87671,1601.70401Q2146.10071,1602.23276,2147.4439700000003,1602.23276Q2148.45197,1602.23276,2149.41046,1601.89751Q2150.37122,1601.56,2151.2352300000002,1601.272Q2152.62793,1600.552,2153.46722,1601.96951Q2154.30872,1603.38475,2154.35596,1605.2095Q2154.4031999999997,1607.03201,2153.30072,1607.79926Q2152.09918,1608.56876,2149.62646,1609.48001Q2147.15594,1610.3912500000001,2144.80469,1610.3912500000001ZM2160.5007299999997,1677.16Q2158.0032300000003,1677.16,2157.0672,1676.24651Q2156.13123,1675.33525,2155.98724,1673.56L2148.26074,1606.26476Q2148.01996,1603.72,2149.48248,1602.28Q2150.9472,1600.84,2153.34796,1600.84Q2155.36395,1600.84,2156.53845,1601.58475Q2157.71521,1602.32726,2157.85925,1604.728L2164.24475,1662.28075L2203.02795,1604.15201Q2204.65924,1602.03925,2205.81122,1601.44075Q2206.96326,1600.84,2208.64398,1600.84Q2211.85925,1600.84,2213.25195,1602.6399999999999Q2214.64471,1604.44,2213.10797,1606.45599L2166.83673,1673.94475Q2165.6352500000003,1675.43201,2164.31445,1676.29601Q2162.99597,1677.16,2160.5007299999997,1677.16ZM2225.0127,1644.37524Q2219.87598,1643.22325,2216.32324,1640.29601Q2212.77271,1637.36874,2210.4439700000003,1632.5695Q2208.11523,1627.76801,2207.0352199999998,1621.144Q2205.9552,1614.52,2205.81122,1606.07126Q2205.81122,1604.10475,2207.0127,1603.19351Q2208.21198,1602.28,2209.8432000000003,1602.11349Q2211.47675,1601.94476,2212.67596,1602.47351Q2213.87524,1603,2213.87524,1604.05525Q2213.87524,1612.16876,2214.6672399999998,1618.07275Q2215.45923,1623.97675,2217.16248,1627.7455Q2218.86798,1631.51199,2221.41046,1633.64951Q2223.9552,1635.78476,2227.55524,1636.696Q2228.80396,1636.84,2229.0672,1638.1855Q2229.3327,1639.52875,2228.80396,1641.06551Q2228.27521,1642.60001,2227.24249,1643.608Q2226.21198,1644.616,2225.0127,1644.37524ZM2228.41925,1636.31125Q2234.8047500000002,1637.12801,2241.45123,1635.76001Q2248.09998,1634.392,2253.64398,1631.51199Q2259.18799,1628.632,2262.61926,1624.672Q2266.05273,1620.71201,2266.05273,1616.05675Q2266.05273,1612.60075,2264.08398,1611.0415Q2262.11523,1609.48001,2258.70874,1609.48001Q2252.66077,1609.48001,2247.7647699999998,1613.15201Q2242.86877,1616.82401,2239.43524,1622.584Q2236.00403,1628.34399,2234.13202,1634.82401Q2232.26001,1641.304,2232.26001,1646.72876Q2232.26001,1651.672,2233.31525,1655.6815Q2234.37274,1659.68875,2236.48328,1662.49675Q2238.59601,1665.30475,2241.93048,1666.84151Q2245.2672700000003,1668.37601,2249.53998,1668.37601Q2251.26801,1668.37601,2251.89124,1669.744Q2252.51672,1671.112,2252.25122,1672.912Q2251.98798,1674.71201,2250.90802,1676.08Q2249.828,1677.448,2248.09998,1677.448Q2239.12476,1677.448,2233.24323,1673.416Q2227.3640100000002,1669.384,2224.57849,1662.616Q2221.7952299999997,1655.84801,2221.7952299999997,1647.39925Q2221.7952299999997,1640.10475,2224.43451,1631.9215100000001Q2227.0759900000003,1623.73601,2232.01923,1616.53601Q2236.96472,1609.336,2244.09277,1604.8Q2251.22076,1600.26401,2260.34003,1600.26401Q2265.71527,1600.26401,2269.38727,1602.16075Q2273.0592699999997,1604.05525,2274.88397,1607.34476Q2276.70874,1610.632,2276.70874,1614.90475Q2276.70874,1621.38475,2272.41125,1627.048Q2268.11603,1632.71124,2261.06,1636.9840100000001Q2254.00403,1641.25674,2245.3640100000002,1643.32001Q2236.724,1645.38326,2227.94,1644.80725L2228.41925,1636.31125ZM2248.0032300000003,1677.448Q2246.70728,1677.448,2246.18073,1676.08Q2245.65198,1674.71201,2245.7735000000002,1672.8895Q2245.8927599999997,1671.06474,2246.87598,1669.7215Q2247.85925,1668.37601,2249.3959999999997,1668.37601Q2255.20325,1668.37601,2261.46722,1665.37675Q2267.73126,1662.37524,2275.0280199999997,1655.46326Q2282.32477,1648.55125,2291.20325,1636.86475Q2300.08398,1625.17599,2311.12476,1607.75201Q2311.84473,1606.60001,2313.40399,1607.12875Q2314.96326,1607.65524,2316.06799,1608.87924Q2317.1727300000002,1610.10326,2316.5,1611.30475Q2305.50873,1629.496,2296.4367700000003,1642.19275Q2287.3647499999997,1654.88725,2279.276,1662.616Q2271.18726,1670.34476,2263.55524,1673.89751Q2255.92328,1677.448,2248.0032300000003,1677.448ZM2296.53125,1677.16Q2294.37122,1677.16,2292.95599,1676.3185Q2291.54071,1675.47925,2292.21124,1673.36874L2312.03595,1604.53674Q2312.75598,1602.32726,2313.88324,1601.58475Q2315.0127,1600.84,2317.26721,1600.84Q2320.62872,1600.84,2321.70874,1601.89751Q2322.7887,1602.9527600000001,2322.06873,1605.304L2313.90796,1633.19275Q2318.75671,1624.26476,2323.45923,1617.976Q2328.1639999999998,1611.68726,2332.60321,1607.75201Q2337.0447400000003,1603.81674,2341.052,1602.0415Q2345.0592,1600.26401,2348.46796,1600.26401Q2352.5,1600.26401,2355.64319,1602.136Q2358.7887,1604.008,2360.41998,1606.60001Q2361.33124,1607.75201,2361.04321,1609.0975Q2360.75525,1610.44075,2359.55597,1611.73676Q2358.16321,1613.03275,2356.93921,1613.53674Q2355.71521,1614.04076,2354.70721,1612.936Q2353.31671,1611.68726,2351.34796,1610.632Q2349.37921,1609.57675,2347.12469,1609.57675Q2343.1399499999998,1609.57675,2338.0032300000003,1613.20151Q2332.8687099999997,1616.82401,2327.20325,1624.12076Q2321.53998,1631.41525,2315.51447,1642.33675Q2309.49121,1653.256,2303.7312,1667.75275L2302.14722,1673.94475Q2301.71521,1675.576,2300.4439700000003,1676.368Q2299.1727300000002,1677.16,2296.53125,1677.16Z" fill="url(#master_svgm_63_0325)" fill-opacity="1"/></g></g></svg>